<svg width="441" height="357" viewBox="0 0 441 357" fill="none" xmlns="http://www.w3.org/2000/svg">
<g clip-path="url(#clip0_2_35)">
<path d="M99.263 180.555C93.6515 180.177 91.0379 181.271 89.3503 182.384C88.8085 182.741 88.274 183.16 87.7688 183.612C90.3193 178.434 92.9318 173.278 95.594 168.159C95.6113 168.846 95.7334 169.172 96.0351 169.335C96.7254 169.708 98.3359 168.515 101.529 166.112C103.956 164.286 104.266 163.823 104.446 163.505C105.081 162.39 105.027 161.471 104.636 157.464C103.934 150.272 103.753 149.596 104.093 147.898C104.21 147.313 104.53 145.904 104.303 145.823C104.07 145.74 103.707 147.219 102.416 148.183C101.158 149.123 100.272 148.638 99.1287 149.243C97.6506 150.025 97.2438 151.835 96.6318 154.747C96.0899 157.326 96.2282 158.238 95.9052 163.098C95.8137 164.474 95.7268 165.545 95.6675 166.389C93.284 170.949 90.945 175.543 88.6482 180.155C88.6793 180.029 88.7085 179.91 88.7338 179.806C89.4445 176.89 89.2076 175.545 88.8505 174.599C88.2718 173.068 87.1218 172.151 84.8453 170.38C82.6145 168.644 80.7276 167.645 78.46 166.458C75.4876 164.902 74.0015 164.124 73.5983 164.351C72.586 164.922 72.7364 167.915 73.5821 171.659C71.6572 170.665 70.6349 170.199 70.3115 170.381C70.1723 170.46 70.0558 170.586 69.9593 170.751C68.5203 170.68 66.6128 170.762 64.4302 171.049C66.1523 170.426 68.0875 169.604 70.1722 168.483C71.9792 167.511 72.881 167.017 72.7945 166.608C72.4849 165.147 60.146 165.176 49.5686 170.732C44.5887 173.348 42.9327 175.647 42.0764 177.48C41.8014 178.068 41.5645 178.705 41.3704 179.355C40.8371 173.606 40.3686 167.845 39.9615 162.088C40.3356 162.665 40.6101 162.879 40.9525 162.86C41.7358 162.816 42.4843 160.956 43.9494 157.237C45.0631 154.41 45.0853 153.853 45.0732 153.488C45.0309 152.205 44.5044 151.45 42.0764 148.24C37.7185 142.478 37.2114 141.997 36.6136 140.371C36.4078 139.812 35.9437 138.443 35.708 138.493C35.4657 138.544 35.9295 139.994 35.3334 141.492C34.7523 142.952 33.7439 143.002 33.0857 144.116C32.2348 145.557 32.834 147.312 33.8349 150.114C34.7213 152.596 35.3161 153.301 37.581 157.612C38.2226 158.833 38.7085 159.791 39.0987 160.541C39.4515 165.675 39.8596 170.815 40.313 175.948C40.2734 175.824 40.2359 175.707 40.2033 175.605C39.2849 172.748 38.3795 171.726 37.581 171.107C36.2874 170.105 34.8279 169.925 31.9618 169.607C29.1533 169.296 27.0227 169.432 24.4696 169.607C21.1231 169.837 19.4498 169.952 19.225 170.357C18.6083 171.468 20.6926 174.318 23.8072 177.366C21.2646 177.546 19.9686 177.679 19.7728 178.032C19.2611 178.953 20.6126 181.074 22.8644 183.51C21.2992 183.645 20.4736 183.786 20.3206 184.062C18.6024 187.156 37.8015 203.737 42.0481 200.556C42.3706 200.314 42.599 199.96 42.7563 199.528C42.8258 200.112 42.8969 200.697 42.9678 201.282C37.9512 200.717 28.3143 202.23 22.5966 208.219C19.7542 211.196 19.3258 213.766 19.2251 214.592C18.7783 218.254 20.559 222.151 22.0364 222.437C22.4725 225.163 23.8393 227.418 24.961 227.398C26.3673 227.373 26.1184 223.798 29.4563 219.9C31.7853 217.181 34.555 215.83 36.1993 215.027C39.7311 213.304 41.7831 213.354 44.3272 211.951C44.3783 212.329 44.4327 212.707 44.4844 213.085C39.8242 213.867 34.5025 215.867 30.8136 219.731C27.9712 222.708 27.5427 225.278 27.442 226.104C27.1668 228.36 27.7395 230.702 28.5636 232.24C26.3217 234.597 25.702 237.057 24.4696 241.958C23.6823 245.089 23.8543 246.199 24.4696 246.831C24.9785 247.353 25.7824 247.54 28.965 247.206C32.4173 246.844 34.1435 246.663 35.708 246.081C38.1827 245.161 39.8889 243.581 43.2002 240.458C44.5618 239.174 45.7132 238.083 46.6518 237.132C47.1401 237.298 47.5984 237.425 48.0612 237.517C48.115 237.527 48.168 237.535 48.2215 237.545C49.0755 242.609 49.9777 247.658 50.9272 252.686C47.8385 253.376 45.1995 255.41 43.7494 258.338L32.2901 281.473C31.5666 282.933 31.1842 284.567 31.1842 286.197V345.685C31.1842 351.55 35.9526 356.322 41.8138 356.322H68.5617C74.4229 356.322 79.1913 351.55 79.1913 345.685V290.908C79.1913 289.573 78.9441 288.265 78.4565 287.022L67.5352 259.176C65.956 255.15 62.1823 252.529 57.8794 252.434C60.1105 246.544 62.4122 240.662 64.7945 234.802C65.1617 234.66 65.4865 234.512 65.7688 234.355C66.2083 234.837 67.1088 235.4 69.0184 236.314C72.1499 237.812 73.7157 238.562 75.3531 238.885C77.9432 239.396 80.2233 238.943 84.6779 238.015C90.7391 236.752 93.7826 236.084 94.4167 234.32C95.2942 231.877 92.5418 228.731 91.7833 227.864C90.1345 225.979 88.3147 225.12 87.1902 224.603C85.7301 223.932 81.5684 222.019 76.5377 223.338C73.3712 224.168 71.5578 225.941 67.9307 229.488C67.5815 229.829 67.2799 230.14 67.0122 230.429C66.9519 230.255 66.8838 230.084 66.8091 229.913C67.3178 228.686 67.8265 227.459 68.3413 226.235C72.0608 222.704 73.8912 220.76 73.5437 219.09C73.3806 218.307 72.8874 217.648 72.2525 217.1C72.9581 215.479 73.6651 213.859 74.3808 212.245C74.7098 212.237 75.0493 212.221 75.4148 212.187C77.3313 212.006 79.5012 211.801 79.7326 210.88C79.855 210.393 79.4335 209.681 78.605 208.879C79.8022 208.544 81.6259 206.106 85.7194 204.786C89.126 203.687 92.1929 203.985 94.0138 204.162C98.7126 204.619 100.246 206.145 104.47 205.746C106.387 205.565 108.557 205.361 108.788 204.44C108.892 204.026 108.602 203.45 108.007 202.795C109.072 202.942 110.211 203.058 111.425 203.128C113.473 203.246 114.5 203.297 114.64 202.903C115.14 201.496 104.608 195.062 92.6894 194.26C89.7957 194.065 87.7033 194.263 86.1199 194.651C89.9296 193.228 95.5996 191.065 101.824 192.816C103.967 193.419 108.304 195.085 114.712 195.454C116.76 195.571 117.787 195.622 117.926 195.229C118.426 193.822 107.904 187.393 95.9912 186.586C98.7562 186.027 101.858 185.871 105.111 186.786C107.254 187.389 111.591 189.055 117.999 189.424C120.047 189.541 121.073 189.592 121.213 189.199C121.713 187.791 111.182 181.357 99.263 180.555ZM44.2024 205.204C44.3638 205.077 44.522 204.95 44.6745 204.823C44.948 205.225 45.2367 205.534 45.5256 205.73C45.5563 205.891 45.5893 206.05 45.6262 206.207C45.2193 206.163 44.7833 206.134 44.3217 206.118C44.2828 205.814 44.2409 205.509 44.2024 205.204ZM67.7425 184.11C67.789 184.377 67.8394 184.649 67.895 184.928C67.3858 184.83 66.8025 184.761 66.1647 184.719C66.6734 184.534 67.1986 184.333 67.7425 184.11ZM68.9554 189.153C68.5644 189.114 68.1463 189.088 67.7064 189.074C68.0503 188.812 68.3902 188.547 68.7051 188.282C68.7856 188.571 68.8688 188.861 68.9554 189.153ZM59.9373 197.84C63.9709 195.944 66.0598 196.348 69.3665 193.861C69.6743 193.63 69.9898 193.392 70.296 193.153C71.3933 196.081 72.7067 198.874 74.0595 200.898C70.2709 198.984 65.0659 197.428 59.9373 197.84ZM69.6472 173.69C69.7689 175.287 70.1607 177.318 70.7438 179.5C70.7106 179.5 70.6776 179.5 70.6441 179.5C69.1965 178.771 68.3991 178.447 68.1203 178.604C67.8301 178.768 67.6356 179.131 67.5255 179.653C62.9763 180.087 56.8447 181.478 51.212 184.437C46.2321 187.052 44.5761 189.352 43.7198 191.184C43.3547 191.965 43.0564 192.831 42.8373 193.701C42.725 192.692 42.6094 191.685 42.5009 190.674C44.9489 189.721 48.6501 180.515 57.81 177.915C59.8845 177.326 64.2381 176.504 69.6472 173.69ZM42.9992 206.113C43.0667 206.064 43.1316 206.022 43.2002 205.97C43.3047 205.891 43.4101 205.812 43.5158 205.732C43.5317 205.857 43.5487 205.982 43.5647 206.107C43.3789 206.107 43.1914 206.109 42.9992 206.113ZM45.0281 211.532C45.3235 211.343 45.6244 211.14 45.9392 210.904C46.413 210.547 46.9057 210.176 47.353 209.807C47.6994 210.157 48.0545 210.361 48.3883 210.355C48.5189 210.353 48.6318 210.311 48.7381 210.25C48.451 211.109 48.2819 211.951 48.228 212.7C47.2856 212.733 46.2778 212.818 45.2245 212.968C45.1591 212.49 45.0926 212.011 45.0281 211.532ZM57.0818 252.425H53.2731C52.7276 252.425 52.1906 252.469 51.6636 252.549C50.73 247.605 49.8424 242.64 49.0013 237.661C51.241 237.91 53.4757 237.461 57.386 236.646C60.1566 236.069 62.2898 235.616 63.8575 235.126C61.5251 240.875 59.2683 246.647 57.0818 252.425ZM65.9988 228.443C66.312 228.151 66.6436 227.839 66.9891 227.513C66.7779 228.019 66.5723 228.526 66.3622 229.032C66.2451 228.829 66.1232 228.633 65.9988 228.443ZM67.9245 214.967C65.5341 214.224 63.5338 214.444 62.3054 214.592C60.7651 214.778 56.4763 215.304 52.9437 218.722C51.7646 218.691 50.4296 218.756 49.007 218.935C49.7644 218.587 50.5484 218.135 51.4172 217.482C52.956 216.324 54.6983 215.014 54.4141 214.108C54.2827 213.689 53.7061 213.342 52.8145 213.094C53.8188 212.428 55.0663 211.741 56.6639 211.226C60.0705 210.128 63.1374 210.426 64.9582 210.603C68.8999 210.986 70.619 212.117 73.5629 212.238C72.9157 213.7 72.2772 215.167 71.6383 216.634C70.2715 215.701 68.5823 215.171 67.9245 214.967ZM76.5922 207.298C76.6182 207.241 76.6435 207.183 76.6694 207.125C76.8733 207.102 77.0745 207.076 77.2708 207.048C77.2848 207.344 77.3228 207.611 77.3818 207.849C77.1364 207.667 76.8696 207.483 76.5922 207.298ZM82.7767 196.088C82.7584 196.1 82.7405 196.114 82.7222 196.126C82.7658 195.97 82.8066 195.819 82.8461 195.672C83.1818 195.626 83.5654 195.531 83.9934 195.4C83.5347 195.62 83.1331 195.853 82.7767 196.088Z" fill="#F2F2F2"/>
<path d="M132.114 351.305L140.469 351.304L144.444 319.055L132.112 319.056L132.114 351.305Z" fill="#FFB6B6"/>
<path d="M160.74 351.116C161 351.554 161.137 352.969 161.137 353.479C161.137 355.046 159.867 356.317 158.301 356.317H132.427C131.358 356.317 130.492 355.45 130.492 354.381V353.303C130.492 353.303 129.212 350.063 131.847 346.069C131.847 346.069 135.123 349.196 140.017 344.299L141.46 341.682L151.907 349.328L157.698 350.041C158.965 350.197 160.088 350.017 160.74 351.116Z" fill="#2F2E41"/>
<path d="M178.129 351.305L186.484 351.304L190.459 319.055L178.127 319.056L178.129 351.305Z" fill="#FFB6B6"/>
<path d="M206.755 351.116C207.015 351.554 207.152 352.969 207.152 353.479C207.152 355.046 205.883 356.317 204.316 356.317H178.442C177.373 356.317 176.507 355.45 176.507 354.381V353.303C176.507 353.303 175.227 350.063 177.862 346.069C177.862 346.069 181.138 349.196 186.032 344.299L187.475 341.682L197.922 349.328L203.713 350.041C204.98 350.197 206.103 350.017 206.755 351.116Z" fill="#2F2E41"/>
<path d="M174.773 94.5869C174.773 94.5869 184.396 90.2014 190.54 94.5869C196.685 98.9723 202.163 138.441 195.589 145.019C189.015 151.598 178.059 136.797 178.059 136.797L174.773 94.5869Z" fill="#FFB6B6"/>
<path d="M138.403 95.1091C138.403 95.1091 128.78 90.7237 122.636 95.1091C116.491 99.4946 111.013 138.963 117.587 145.542C124.161 152.12 135.117 137.319 135.117 137.319L138.403 95.1091Z" fill="#FFB6B6"/>
<path d="M138.677 143.623C138.677 143.623 135.39 158.424 131.556 165.002L159.494 181.447L181.406 167.195C181.406 167.195 170.997 150.201 172.641 145.268L138.677 143.623Z" fill="#FFB6B6"/>
<path d="M329.023 349.662L318.293 349.661L313.189 308.246L329.025 308.247L329.023 349.662Z" fill="#FFB6B6"/>
<path d="M292.262 349.418C291.927 349.981 291.751 351.798 291.751 352.453C291.751 354.466 293.382 356.097 295.393 356.097H328.621C329.993 356.097 331.106 354.984 331.106 353.611V352.227C331.106 352.227 332.749 348.066 329.365 342.938C329.365 342.938 325.159 346.953 318.874 340.664L317.02 337.304L303.604 347.123L296.168 348.039C294.541 348.239 293.098 348.008 292.262 349.418Z" fill="#2F2E41"/>
<path d="M362.189 349.662L351.459 349.661L346.355 308.246L362.191 308.247L362.189 349.662Z" fill="#FFB6B6"/>
<path d="M325.428 349.418C325.094 349.981 324.917 351.798 324.917 352.453C324.917 354.466 326.548 356.097 328.559 356.097H361.788C363.16 356.097 364.272 354.984 364.272 353.611V352.227C364.272 352.227 365.916 348.066 362.531 342.938C362.531 342.938 358.325 346.953 352.04 340.664L350.187 337.304L336.771 347.123L329.334 348.039C327.707 348.239 326.265 348.008 325.428 349.418Z" fill="#2F2E41"/>
<path d="M306.7 110.751C306.7 110.751 305.146 120.76 306.946 127.219L280.519 174.114L290.799 181.612L325.13 138.388L329.887 117.031L306.7 110.751Z" fill="#FFB6B6"/>
<path d="M289.222 188.433C292.864 181.971 292.582 174.907 288.593 172.656C284.605 170.405 278.419 173.819 274.777 180.282C271.135 186.744 271.416 193.808 275.405 196.059C279.394 198.31 285.58 194.896 289.222 188.433Z" fill="#FFB6B6"/>
<path d="M317.01 158.462C317.01 158.462 304.375 167.385 308.718 180.704L305.165 225.631L313.062 318.088H330.071L332.804 251.709L343.859 209.827L345.292 318.088L366.365 317.692C366.365 317.692 367.549 263.562 365.97 260.401C364.391 257.24 365.97 259.776 365.97 259.776L379 196.384L377.025 152.931L317.01 158.462Z" fill="#2F2E41"/>
<path d="M348.202 48.2262L325.302 56.9186L327.671 63.2404L308.718 77.4644L321.353 121.717L314.246 161.228L334.778 160.438L379 156.487L374.262 108.283L375.051 61.66L357.678 55.3382L348.202 48.2262Z" fill="#BA7C1E"/>
<path d="M314.641 76.2791L308.718 77.4644C308.718 77.4644 305.955 79.44 305.955 86.552C305.955 93.664 305.955 98.4053 306.744 102.356C306.744 102.356 302.006 115 303.586 118.161C305.165 121.322 324.907 121.322 324.907 121.322L314.641 76.2791Z" fill="#BA7C1E"/>
<path d="M347.276 29.8892C347.276 39.8377 339.217 47.9026 329.275 47.9026C319.333 47.9026 311.274 39.8377 311.274 29.8892C311.274 19.9407 319.333 11.8759 329.275 11.8759C339.217 11.8759 347.276 19.9407 347.276 29.8892Z" fill="#FFB6B6"/>
<path d="M340.524 42.4324C340.524 42.4324 343.713 30.1725 340.315 32.3343L335.041 31.8328L338.371 22.9197C338.371 22.9197 332.41 18.4479 330.034 21.0619C327.657 23.6758 328.226 25.1499 326.066 21.7496C323.906 18.3492 319.392 18.4135 315.257 20.8603C311.123 23.307 307.892 23.7098 308.678 19.1696C309.464 14.6295 309.023 6.91472 311.478 7.78964C313.932 8.66455 313.259 9.15838 314.583 5.98791C315.906 2.81744 316.073 1.05837 319.137 2.4147C322.201 3.77102 329.901 -2.59662 333.082 1.25584C336.264 5.10829 339.043 5.72756 341.822 6.34683C344.601 6.96609 355.767 5.18797 354.834 22.4937C354.834 22.4937 362.286 37.4021 348.862 44.2902C348.862 44.2902 345.218 40.6923 342.675 45.0653L340.524 42.4324Z" fill="#2F2E41"/>
<path d="M167.711 81.1305L150.181 81.6787L140.868 93.1905L130.46 95.3832C130.46 95.3832 127.173 126.081 132.104 137.045C137.034 148.008 134.843 151.298 134.843 151.298L174.284 150.749C174.284 150.749 173.189 143.304 179.762 136.885L183.059 124.677C184.821 118.15 184.221 111.209 181.363 105.082L174.284 89.9014L168.258 87.7087L167.711 81.1305Z" fill="#2F2E41"/>
<path d="M134.843 157.876L132.378 161.987C132.378 161.987 124.708 172.402 123.613 202.004C122.517 231.606 131.556 327.393 131.556 327.393H144.065L157.587 197.798L175.654 327.537L191.814 327.811L190.444 195.426C190.444 195.426 187.157 165.276 178.393 158.698C178.393 158.698 150.181 184.188 134.843 157.876Z" fill="#2F2E41"/>
<path d="M112.029 92.9345C112.029 98.6255 111.686 102.86 105.476 103.239C99.643 103.595 98.923 98.6255 98.923 92.9345C98.923 87.2434 99.0588 82.6761 105.476 82.63C112.782 82.5775 112.029 87.2434 112.029 92.9345Z" fill="#BA7C1E"/>
<path d="M148.538 92.9345C148.538 98.6255 150.032 102.86 141.985 103.239C135.794 103.53 135.432 98.6255 135.432 92.9345C135.432 87.2434 136.341 83.2685 141.985 82.6299C147.293 82.0293 148.538 87.2434 148.538 92.9345Z" fill="#BA7C1E"/>
<path d="M142.921 88.2506H106.412V96.6816H142.921V88.2506Z" fill="#BA7C1E"/>
<path d="M175.026 91.2899C175.026 96.981 174.683 101.216 168.473 101.594C162.64 101.95 161.92 96.981 161.92 91.2899C161.92 85.5989 162.056 81.0315 168.473 80.9854C175.779 80.9329 175.026 85.5989 175.026 91.2899Z" fill="#BA7C1E"/>
<path d="M211.534 91.2899C211.534 96.981 213.029 101.216 204.982 101.594C198.791 101.886 198.429 96.981 198.429 91.2899C198.429 85.5989 199.338 81.624 204.982 80.9854C210.29 80.3847 211.534 85.5989 211.534 91.2899Z" fill="#BA7C1E"/>
<path d="M205.918 86.6061H169.409V95.037H205.918V86.6061Z" fill="#BA7C1E"/>
<path d="M270.343 181.191C270.343 186.882 270 191.117 263.79 191.496C257.957 191.852 257.237 186.882 257.237 181.191C257.237 175.5 257.373 170.933 263.79 170.887C271.096 170.834 270.343 175.5 270.343 181.191Z" fill="#BA7C1E"/>
<path d="M306.851 181.191C306.851 186.882 308.346 191.117 300.299 191.496C294.108 191.787 293.746 186.882 293.746 181.191C293.746 175.5 294.655 171.525 300.299 170.887C305.607 170.286 306.851 175.5 306.851 181.191Z" fill="#BA7C1E"/>
<path d="M301.235 176.507H264.726V184.938H301.235V176.507Z" fill="#BA7C1E"/>
<path d="M187.944 104.238C191.874 104.238 195.061 99.0756 195.061 92.7071C195.061 86.3386 191.874 81.1758 187.944 81.1758C184.013 81.1758 180.826 86.3386 180.826 92.7071C180.826 99.0756 184.013 104.238 187.944 104.238Z" fill="#FFB6B6"/>
<path d="M154.289 74.5524C165.03 74.5524 173.736 65.8397 173.736 55.092C173.736 44.3444 165.03 35.6317 154.289 35.6317C143.549 35.6317 134.843 44.3444 134.843 55.092C134.843 65.8397 143.549 74.5524 154.289 74.5524Z" fill="#FFB6B6"/>
<path d="M150.385 61.2069L154.884 54.0415L156.911 44.2967C156.911 44.2967 177.408 49.2994 171.909 39.2939C166.41 29.2883 152.411 26.7869 142.913 34.2911L138.819 38.2933C138.819 38.2933 147.912 29.7886 142.413 26.7869C136.914 23.7852 137.913 21.7841 134.914 24.2855C131.914 26.7869 133.414 28.788 129.915 27.2872C126.415 25.7863 118.916 23.7852 119.916 26.2866C120.916 28.788 113.373 35.2916 116.145 38.2933C118.916 41.295 116.416 47.2983 121.416 45.7975C126.415 44.2967 123.915 51.8008 128.415 48.7992C128.415 48.7992 124.722 53.5087 127.721 57.0106C130.721 60.5126 135.343 61.8751 134.843 66.8779C134.343 71.8807 146.346 72.9078 146.346 72.9078L145.412 58.3045C145.412 58.3045 148.385 55.8653 150.385 61.2069Z" fill="#2F2E41"/>
<path d="M348.374 94.7864C348.374 94.7864 345.507 104.501 346.434 111.142L314.024 154.114L323.219 162.911L362.977 124.626L370.523 104.09L348.374 94.7864Z" fill="#FFB6B6"/>
<path d="M320.751 169.462C325.218 163.54 325.875 156.502 322.22 153.741C318.565 150.98 311.981 153.543 307.515 159.465C303.049 165.387 302.391 172.426 306.046 175.186C309.701 177.947 316.285 175.384 320.751 169.462Z" fill="#FFB6B6"/>
<path d="M371.861 59.0638C371.861 59.0638 381.958 62.7294 380.673 69.6795C379.389 76.6296 378.901 81.2115 378.901 81.2115C378.901 81.2115 379.995 85.0079 378.568 86.9001C377.141 88.7923 369.814 110.979 369.814 110.979L343.461 101.966C343.461 101.966 358.91 59.1827 371.861 59.0638Z" fill="#BA7C1E"/>
<path d="M441 356.539C441 356.794 440.794 357 440.54 357H0.460167C0.206027 357 0 356.794 0 356.539C0 356.285 0.206022 356.079 0.460167 356.079H440.54C440.794 356.079 441 356.285 441 356.539Z" fill="#E6E6E6"/>
<path d="M132.35 93.2293C132.35 99.5979 129.163 104.761 125.232 104.761C121.302 104.761 118.115 99.5979 118.115 93.2293C118.115 86.8608 121.302 81.6981 125.232 81.6981C129.163 81.6981 132.35 86.8608 132.35 93.2293Z" fill="#FFB6B6"/>
</g>
<defs>
<clipPath id="clip0_2_35">
<rect width="441" height="357" fill="white"/>
</clipPath>
</defs>
</svg>
