<svg width="560" height="363" viewBox="0 0 560 363" fill="none" xmlns="http://www.w3.org/2000/svg">
<g clip-path="url(#clip0_2_5)">
<path d="M429.033 343.83L458.188 300.525L429.092 348.489L429.153 353.362C427.025 353.378 424.917 353.343 422.83 353.256L424.276 290.617L424.236 290.134L424.29 290.041L424.428 284.122L392.5 237.82L424.39 279.692L424.504 280.943L425.596 233.617L398.019 185.612L425.674 225.303L425.386 127.255L425.386 126.929L425.396 127.25L427.226 204.525L452.36 173.136L427.309 211.182L427.857 253.514L450.985 212.199L427.942 259.737L428.248 283.276L461.882 225.725L428.35 291.488L429.033 343.83Z" fill="#E6E6E6"/>
<path d="M527.151 345.194L556.306 301.889L527.211 349.853L527.272 354.726C525.143 354.743 523.035 354.707 520.948 354.62L522.394 291.981L522.355 291.498L522.408 291.405L522.546 285.486L490.618 239.184L522.509 281.056L522.622 282.307L523.714 234.981L496.137 186.976L523.793 226.667L523.504 128.619L523.505 128.293L523.514 128.614L525.345 205.889L550.478 174.5L525.427 212.546L525.976 254.878L549.103 213.563L526.06 261.101L526.366 284.64L560 227.089L526.468 292.852L527.151 345.194Z" fill="#E6E6E6"/>
<path d="M232.201 0H57.7352V235.711H232.201V0Z" fill="#E6E6E6"/>
<path d="M226.053 8.306H63.8831V227.405H226.053V8.306Z" fill="white"/>
<path d="M204.737 46.7353H85.7187C84.7547 46.734 83.8305 46.3506 83.1493 45.6693C82.468 44.9879 82.0854 44.0643 82.0854 43.1014C82.0854 42.1385 82.468 41.2149 83.1493 40.5336C83.8305 39.8522 84.7547 39.4688 85.7187 39.4675H204.737C205.215 39.4669 205.689 39.5604 206.131 39.7428C206.573 39.9251 206.974 40.1927 207.313 40.5302C207.651 40.8677 207.92 41.2685 208.103 41.7097C208.286 42.1509 208.38 42.6238 208.38 43.1014C208.38 43.579 208.286 44.0519 208.103 44.4931C207.92 44.9343 207.651 45.3351 207.313 45.6726C206.974 46.0101 206.573 46.2777 206.131 46.46C205.689 46.6424 205.215 46.7359 204.737 46.7353Z" fill="#E6E6E6"/>
<path d="M204.737 84.1122H85.7187C84.7547 84.111 83.8305 83.7275 83.1493 83.0462C82.468 82.3649 82.0854 81.4413 82.0854 80.4784C82.0854 79.5154 82.468 78.5918 83.1493 77.9105C83.8305 77.2291 84.7547 76.8458 85.7187 76.8445H204.737C205.215 76.8439 205.689 76.9374 206.131 77.1197C206.573 77.3021 206.974 77.5696 207.313 77.9071C207.651 78.2446 207.92 78.6454 208.103 79.0866C208.286 79.5278 208.38 80.0007 208.38 80.4784C208.38 80.956 208.286 81.4289 208.103 81.8701C207.92 82.3113 207.651 82.7121 207.313 83.0496C206.974 83.3871 206.573 83.6546 206.131 83.837C205.689 84.0193 205.215 84.1129 204.737 84.1122Z" fill="#E6E6E6"/>
<path d="M204.737 121.489H85.7187C84.7547 121.488 83.8305 121.105 83.1493 120.423C82.468 119.742 82.0854 118.818 82.0854 117.855C82.0854 116.892 82.468 115.969 83.1493 115.287C83.8305 114.606 84.7547 114.223 85.7187 114.221H204.737C205.215 114.221 205.689 114.314 206.131 114.497C206.573 114.679 206.974 114.947 207.313 115.284C207.651 115.622 207.92 116.022 208.103 116.464C208.286 116.905 208.38 117.378 208.38 117.855C208.38 118.333 208.286 118.806 208.103 119.247C207.92 119.688 207.651 120.089 207.313 120.427C206.974 120.764 206.573 121.032 206.131 121.214C205.689 121.396 205.215 121.49 204.737 121.489Z" fill="#E6E6E6"/>
<path d="M204.737 158.866H85.7187C84.7547 158.865 83.8305 158.481 83.1493 157.8C82.468 157.119 82.0854 156.195 82.0854 155.232C82.0854 154.269 82.468 153.346 83.1493 152.664C83.8305 151.983 84.7547 151.6 85.7187 151.598H204.737C205.215 151.598 205.689 151.691 206.131 151.874C206.573 152.056 206.974 152.324 207.313 152.661C207.651 152.999 207.92 153.399 208.103 153.841C208.286 154.282 208.38 154.755 208.38 155.232C208.38 155.71 208.286 156.183 208.103 156.624C207.92 157.065 207.651 157.466 207.313 157.804C206.974 158.141 206.573 158.409 206.131 158.591C205.689 158.773 205.215 158.867 204.737 158.866Z" fill="#E6E6E6"/>
<path d="M204.737 196.243H85.7187C84.7547 196.242 83.8305 195.858 83.1493 195.177C82.468 194.496 82.0854 193.572 82.0854 192.609C82.0854 191.646 82.468 190.723 83.1493 190.041C83.8305 189.36 84.7547 188.977 85.7187 188.975H204.737C205.215 188.975 205.689 189.068 206.131 189.251C206.573 189.433 206.974 189.701 207.313 190.038C207.651 190.376 207.92 190.776 208.103 191.218C208.286 191.659 208.38 192.132 208.38 192.609C208.38 193.087 208.286 193.56 208.103 194.001C207.92 194.442 207.651 194.843 207.313 195.18C206.974 195.518 206.573 195.786 206.131 195.968C205.689 196.15 205.215 196.244 204.737 196.243Z" fill="#E6E6E6"/>
<path d="M183.948 46.7353H85.199C84.7208 46.7359 84.2472 46.6424 83.8053 46.46C83.3633 46.2777 82.9617 46.0101 82.6234 45.6726C82.285 45.3351 82.0166 44.9343 81.8335 44.4931C81.6504 44.0519 81.5561 43.579 81.5561 43.1014C81.5561 42.6238 81.6504 42.1509 81.8335 41.7097C82.0166 41.2685 82.285 40.8677 82.6234 40.5302C82.9617 40.1927 83.3633 39.9251 83.8053 39.7428C84.2472 39.5604 84.7208 39.4669 85.199 39.4675H183.948C184.912 39.4688 185.836 39.8522 186.517 40.5336C187.199 41.2149 187.581 42.1385 187.581 43.1014C187.581 44.0643 187.199 44.9879 186.517 45.6693C185.836 46.3506 184.912 46.734 183.948 46.7353Z" fill="#BA7C1E"/>
<path d="M153.284 84.1122H85.199C84.2341 84.1122 83.3088 83.7294 82.6265 83.0479C81.9442 82.3664 81.5609 81.4421 81.5609 80.4784C81.5609 79.5146 81.9442 78.5903 82.6265 77.9088C83.3088 77.2273 84.2341 76.8445 85.199 76.8445H153.284C153.762 76.8439 154.236 76.9374 154.678 77.1197C155.119 77.3021 155.521 77.5696 155.859 77.9071C156.198 78.2446 156.466 78.6454 156.649 79.0866C156.832 79.5278 156.927 80.0007 156.927 80.4784C156.927 80.956 156.832 81.4289 156.649 81.8701C156.466 82.3113 156.198 82.7121 155.859 83.0496C155.521 83.3871 155.119 83.6546 154.678 83.837C154.236 84.0193 153.762 84.1129 153.284 84.1122Z" fill="#BA7C1E"/>
<path d="M115.863 121.489H85.199C84.7208 121.49 84.2472 121.396 83.8053 121.214C83.3633 121.032 82.9617 120.764 82.6234 120.427C82.285 120.089 82.0166 119.688 81.8335 119.247C81.6504 118.806 81.5561 118.333 81.5561 117.855C81.5561 117.378 81.6504 116.905 81.8335 116.464C82.0166 116.022 82.285 115.622 82.6234 115.284C82.9617 114.947 83.3633 114.679 83.8053 114.497C84.2472 114.314 84.7208 114.221 85.199 114.221H115.863C116.827 114.223 117.751 114.606 118.433 115.287C119.114 115.969 119.496 116.892 119.496 117.855C119.496 118.818 119.114 119.742 118.433 120.423C117.751 121.105 116.827 121.488 115.863 121.489Z" fill="#BA7C1E"/>
<path d="M193.303 158.866H85.199C84.2341 158.866 83.3088 158.483 82.6265 157.802C81.9442 157.12 81.5609 156.196 81.5609 155.232C81.5609 154.269 81.9442 153.344 82.6265 152.663C83.3088 151.981 84.2341 151.598 85.199 151.598H193.303C194.268 151.598 195.193 151.981 195.876 152.663C196.558 153.344 196.941 154.269 196.941 155.232C196.941 156.196 196.558 157.12 195.876 157.802C195.193 158.483 194.268 158.866 193.303 158.866Z" fill="#BA7C1E"/>
<path d="M169.395 196.243H85.199C84.7208 196.244 84.2472 196.15 83.8053 195.968C83.3633 195.786 82.9617 195.518 82.6234 195.18C82.285 194.843 82.0166 194.442 81.8335 194.001C81.6504 193.56 81.5561 193.087 81.5561 192.609C81.5561 192.132 81.6504 191.659 81.8335 191.218C82.0166 190.776 82.285 190.376 82.6234 190.038C82.9617 189.701 83.3633 189.433 83.8053 189.251C84.2472 189.068 84.7208 188.975 85.199 188.975H169.395C169.874 188.975 170.347 189.068 170.789 189.251C171.231 189.433 171.633 189.701 171.971 190.038C172.309 190.376 172.578 190.776 172.761 191.218C172.944 191.659 173.038 192.132 173.038 192.609C173.038 193.087 172.944 193.56 172.761 194.001C172.578 194.442 172.309 194.843 171.971 195.18C171.633 195.518 171.231 195.786 170.789 195.968C170.347 196.15 169.874 196.244 169.395 196.243Z" fill="#BA7C1E"/>
<path d="M557.27 353.366H0V354.62H557.27V353.366Z" fill="#3F3D56"/>
<path d="M317.536 169.811C317.536 169.811 313.592 140.919 307.017 148.799C300.443 156.678 307.017 168.498 307.017 168.498L312.277 175.065L317.536 171.125V169.811Z" fill="#9F616A"/>
<path d="M333.314 179.004C333.314 179.004 320.166 164.558 317.536 167.185C314.906 169.811 307.017 171.125 308.332 176.378C309.647 181.631 337.259 198.704 337.259 198.704L333.314 179.004Z" fill="#BA7C1E"/>
<path opacity="0.1" d="M293.128 190.139C293.128 190.139 279.98 175.693 277.35 178.319C274.721 180.946 266.832 182.259 268.147 187.512C269.461 192.765 297.073 209.838 297.073 209.838L293.128 190.139Z" fill="#1E5CBA"/>
<path d="M408.259 177.691V188.198C408.259 188.198 409.574 211.837 401.685 210.524C393.796 209.21 397.741 189.511 397.741 189.511L399.056 177.691L408.259 177.691Z" fill="#9F616A"/>
<path d="M404.315 253.862C404.315 253.862 416.148 272.248 420.093 273.562C424.037 274.875 445.075 286.695 447.704 298.514L466.112 322.154L456.908 333.973C456.908 333.973 414.834 289.321 403 285.381C391.167 281.442 379.333 261.742 379.333 261.742L404.315 253.862Z" fill="#9F616A"/>
<path d="M310.962 223.656C310.962 223.656 285.98 227.596 289.925 243.356C293.869 259.115 331.999 291.948 331.999 291.948L333.314 299.828L347.777 302.454L354.351 295.888L353.037 291.948C353.037 291.948 337.259 277.502 335.944 272.248C334.629 266.995 320.166 245.983 313.592 244.669L322.795 239.416L310.962 223.656Z" fill="#9F616A"/>
<path d="M462.167 322.154C462.167 322.154 456.908 314.274 464.797 315.587C472.686 316.901 477.945 318.214 477.945 323.467C477.945 328.72 471.371 365.493 463.482 362.866C455.593 360.239 462.167 348.42 462.167 348.42C462.167 348.42 458.223 337.913 455.593 336.6C452.964 335.287 452.964 328.72 455.593 328.72C458.223 328.72 463.482 324.78 462.167 322.154Z" fill="#2F2E41"/>
<path d="M350.407 293.261C350.407 293.261 350.407 286.695 355.666 293.261C360.926 299.828 363.555 305.081 358.296 309.021C353.036 312.961 334.629 322.154 334.629 322.154C334.629 322.154 314.906 326.094 317.536 316.901C317.536 316.901 330.684 310.334 330.684 305.081C330.684 299.828 330.684 290.635 334.629 293.261C338.573 295.888 350.407 297.201 350.407 293.261Z" fill="#2F2E41"/>
<path d="M375.389 194.764C375.389 194.764 393.796 197.391 392.481 223.657C392.481 223.657 416.148 247.296 409.574 255.176C403 263.055 388.537 277.502 383.278 273.562C378.018 269.622 362.24 239.416 362.24 239.416C362.24 239.416 325.425 252.549 318.851 245.983C312.277 239.416 305.703 223.657 305.703 223.657L338.573 206.584L375.389 194.764Z" fill="#2F2E41"/>
<path d="M324.11 119.906C332.824 119.906 339.888 112.85 339.888 104.147C339.888 95.4428 332.824 88.387 324.11 88.387C315.396 88.387 308.332 95.4428 308.332 104.147C308.332 112.85 315.396 119.906 324.11 119.906Z" fill="#9F616A"/>
<path d="M335.944 105.46C335.944 105.46 345.148 119.906 347.777 121.219C350.407 122.533 329.37 135.666 329.37 135.666C329.37 135.666 329.37 118.593 322.795 114.653L335.944 105.46Z" fill="#9F616A"/>
<path d="M337.259 119.906C337.259 119.906 358.296 113.34 362.24 123.846C366.185 134.352 375.389 154.052 374.074 167.185C372.759 180.318 370.129 177.691 374.074 181.631C378.018 185.571 380.648 182.944 379.333 188.198C378.018 193.451 376.703 193.451 378.018 196.077C379.333 198.704 362.24 207.897 347.777 209.21L333.314 210.524C333.314 210.524 333.314 186.884 330.684 181.631C328.055 176.378 322.795 165.871 322.795 161.932V151.507C322.795 144.568 324.608 137.75 328.055 131.726C328.055 131.726 335.944 119.906 337.259 119.906Z" fill="#BA7C1E"/>
<path d="M353.037 125.159C353.037 125.159 401.685 129.099 406.945 142.232C412.204 155.365 414.834 181.631 409.574 181.631C404.315 181.631 397.741 184.258 396.426 181.631C395.111 179.004 389.852 152.738 388.537 152.738C387.222 152.738 347.777 148.799 347.777 148.799C347.777 148.799 330.684 127.786 353.037 125.159Z" fill="#BA7C1E"/>
<path d="M323.476 100.24C323.476 100.24 319.289 92.9717 314.056 99.2845C308.822 105.597 300.308 93.9964 301.615 91.5211C302.922 89.0457 307.537 91.6324 315.447 89.0496C323.357 86.4668 338.595 81.2052 341.147 98.3688C343.698 115.532 337.621 113.733 337.621 113.733C337.621 113.733 334.835 98.5242 332.317 102.893L329.799 107.261L327.615 107.798L323.476 100.24Z" fill="#2F2E41"/>
</g>
<defs>
<clipPath id="clip0_2_5">
<rect width="560" height="363" fill="white"/>
</clipPath>
</defs>
</svg>
