<svg width="256" height="67" viewBox="0 0 256 67" fill="none" xmlns="http://www.w3.org/2000/svg">
<g filter="url(#filter0_d_2_91)">
<path d="M36.4387 30.5882L38.398 26.887V47.0249H36.4387V30.5882ZM40.3574 23.0771L42.3168 19.376V47.0249H40.3574V23.0771ZM44.2761 15.675L46.2355 11.9467V47.0249H44.2761V15.675ZM31.132 29.663L30.0162 27.6216L43.5142 1.95938H45.7185L31.132 29.663ZM28.8732 25.3903L27.7303 23.322L39.0511 1.95938H41.2826L28.8732 25.3903ZM15.7563 27.1048L17.7157 30.8055V47.0249H15.7563V27.1048ZM11.8375 19.6482L13.7969 23.3492V47.0249H11.8375V19.6482ZM7.91877 12.1917L9.87816 15.9199V47.0249H7.91877V12.1917ZM23.7571 35.2687H21.5528L5.95939 5.68763V47.0249H4V1.95938H6.20431L23.7571 35.2687ZM28.1929 35.2687H25.9614L8.43583 1.95938H10.6673L28.1929 35.2687ZM48.1949 5.68763L32.6015 35.2687H30.37L12.8717 1.95938H15.076L31.513 33.2005L47.9228 1.95938H50.1543V47.0249H48.1949V5.68763ZM90.8929 7.83752H92.8522L80.5245 33.7994V47.0249H78.5652V33.7994L90.8929 7.83752ZM86.9744 7.83752H88.9336L76.6059 33.7994V47.0249H74.6466V33.7994L86.9744 7.83752ZM83.0558 7.83752H85.0151L72.6873 33.7994V47.0249H70.7276V33.7994L83.0558 7.83752ZM79.1367 7.83752H81.096L68.7683 33.7994V47.0249H66.809V33.7994L53.665 7.83752H55.6243L67.7615 31.8128L79.1367 7.83752ZM57.6109 7.83752H59.5702L69.2856 26.3154L68.3057 28.4652L57.6109 7.83752ZM61.5295 7.83752H63.5161L71.2449 22.0158L70.2381 24.1656L61.5295 7.83752ZM65.5028 7.83752H67.4621L73.2041 17.7432L72.2248 19.8931L65.5028 7.83752ZM132.203 23.4853H134.163V47.0249H132.203V23.4853ZM140.041 23.4853H142V47.0249H140.041V23.4853ZM136.122 23.4853H138.081V47.0249H136.122V23.4853ZM130.244 23.4853V47.0249C126.797 48.3311 123.223 48.9842 119.522 48.9842C116.31 48.9842 113.235 48.3949 110.296 47.2154C107.357 46.0364 104.772 44.4034 102.541 42.317C100.309 40.2123 98.5218 37.6181 97.1792 34.5341C95.8552 31.4317 95.193 28.0842 95.193 24.4922C95.193 21.1721 95.837 18.0063 97.1249 14.9946C98.4311 11.9649 100.173 9.36147 102.35 7.18438C104.545 4.98914 107.149 3.24748 110.16 1.95938C113.19 0.653143 116.365 0 119.685 0C123.821 0 127.668 0.961552 131.224 2.88465C134.779 4.80771 137.682 7.42023 139.932 10.7221L138.299 11.7835C136.231 8.75367 133.555 6.35892 130.271 4.59911C127.006 2.83931 123.477 1.95938 119.685 1.95938C116.637 1.95938 113.716 2.55806 110.923 3.75546C108.146 4.93473 105.751 6.53123 103.738 8.54503C101.724 10.5589 100.118 12.9627 98.9211 15.7566C97.7421 18.5324 97.1523 21.4442 97.1523 24.4922C97.1523 27.7762 97.7598 30.842 98.9753 33.6905C100.209 36.5389 101.842 38.9243 103.874 40.8476C105.924 42.7704 108.301 44.2854 111.004 45.3919C113.707 46.4808 116.519 47.0249 119.44 47.0249C122.506 47.0249 125.454 46.5441 128.285 45.5824V43.7047C125.581 44.6122 122.742 45.0656 119.767 45.0656C117.607 45.0656 115.503 44.7662 113.453 44.1673C111.421 43.5507 109.534 42.6529 107.793 41.4734C106.069 40.2761 104.554 38.861 103.248 37.228C101.96 35.5773 100.944 33.6631 100.2 31.486C99.4744 29.2906 99.1116 26.9594 99.1116 24.4922C99.1116 20.773 100.028 17.335 101.86 14.1782C103.711 11.0215 106.215 8.52689 109.371 6.69453C112.528 4.84404 115.966 3.91876 119.685 3.91876C123.168 3.91876 126.407 4.73515 129.4 6.36799C132.394 7.98263 134.834 10.1779 136.721 12.9536L135.088 14.0149C133.383 11.5113 131.169 9.53379 128.448 8.08244C125.745 6.61291 122.824 5.87814 119.685 5.87814C117.163 5.87814 114.75 6.36799 112.446 7.34768C110.142 8.32737 108.156 9.65174 106.487 11.3209C104.835 12.9718 103.52 14.9493 102.541 17.2534C101.561 19.5575 101.071 21.9704 101.071 24.4922C101.071 26.7598 101.398 28.8918 102.051 30.8876C102.722 32.8651 103.638 34.5974 104.799 36.085C105.978 37.5548 107.348 38.8245 108.909 39.8951C110.469 40.9475 112.165 41.7455 113.997 42.2896C115.848 42.8343 117.744 43.1064 119.685 43.1064C122.696 43.1064 125.563 42.5982 128.285 41.5823V39.623C125.6 40.6571 122.796 41.1739 119.875 41.1739C117.662 41.1739 115.548 40.802 113.535 40.0583C111.521 39.2962 109.725 38.2261 108.146 36.847C106.586 35.4684 105.344 33.7087 104.418 31.5675C103.493 29.4269 103.03 27.0683 103.03 24.4922C103.03 21.4805 103.774 18.6957 105.262 16.1376C106.75 13.5796 108.772 11.5567 111.33 10.069C113.889 8.58136 116.673 7.83752 119.685 7.83752C122.497 7.83752 125.11 8.49061 127.522 9.7969C129.953 11.1031 131.931 12.8811 133.455 15.1307L131.823 16.192C130.48 14.2327 128.738 12.6815 126.597 11.5386C124.475 10.3774 122.171 9.7969 119.685 9.7969C117.018 9.7969 114.56 10.4591 112.31 11.7835C110.061 13.0897 108.274 14.8677 106.949 17.1173C105.643 19.367 104.99 21.8253 104.99 24.4922C104.99 26.3428 105.253 28.066 105.779 29.663C106.305 31.2595 107.031 32.6381 107.956 33.7994C108.881 34.9602 109.961 35.9492 111.195 36.7654C112.446 37.5817 113.789 38.1988 115.222 38.6158C116.655 39.015 118.143 39.2147 119.685 39.2147C122.751 39.2147 125.617 38.6072 128.285 37.3912V35.5135C125.708 36.6565 122.923 37.228 119.93 37.228C118.206 37.228 116.583 36.9651 115.059 36.4391C113.535 35.9127 112.156 35.1416 110.923 34.1257C109.707 33.1098 108.736 31.7763 108.01 30.1256C107.303 28.4561 106.949 26.5784 106.949 24.4922C106.949 22.7687 107.285 21.1268 107.956 19.5665C108.627 17.9881 109.534 16.6275 110.677 15.4845C111.82 14.3415 113.172 13.4344 114.732 12.7631C116.31 12.0919 117.962 11.7562 119.685 11.7562C121.844 11.7562 123.849 12.2642 125.699 13.2802C127.55 14.2781 129.056 15.6387 130.217 17.3622L128.611 18.4236C127.631 16.9722 126.353 15.8292 124.774 14.9946C123.214 14.142 121.517 13.7156 119.685 13.7156C116.71 13.7156 114.17 14.7679 112.065 16.8724C109.961 18.9769 108.909 21.5169 108.909 24.4922C108.909 26.3246 109.208 27.9484 109.806 29.3635C110.405 30.7604 111.221 31.8852 112.256 32.7379C113.308 33.5724 114.469 34.2073 115.739 34.643C117.027 35.06 118.406 35.2687 119.875 35.2687C122.887 35.2687 125.69 34.643 128.285 33.391V23.4853H130.244ZM182.385 7.83752H184.345L172.017 33.7994V47.0249H170.057V33.7994L182.385 7.83752ZM178.466 7.83752H180.426L168.098 33.7994V47.0249H166.139V33.7994L178.466 7.83752ZM174.548 7.83752H176.507L164.179 33.7994V47.0249H162.22V33.7994L174.548 7.83752ZM170.629 7.83752H172.588L160.26 33.7994V47.0249H158.301V33.7994L145.157 7.83752H147.116L159.254 31.8128L170.629 7.83752ZM149.103 7.83752H151.062L160.778 26.3154L159.798 28.4652L149.103 7.83752ZM153.022 7.83752H155.008L162.737 22.0158L161.73 24.1656L153.022 7.83752ZM156.995 7.83752H158.954L164.696 17.7432L163.717 19.8931L156.995 7.83752ZM212.728 22.5328V47.0249H210.769V22.5328C210.769 22.0067 210.678 21.5622 210.497 21.1993C210.334 20.8184 210.116 20.5281 209.844 20.3285C209.572 20.1289 209.209 19.9747 208.755 19.8659C208.32 19.7389 207.893 19.6663 207.476 19.6482C207.059 19.6119 206.542 19.5938 205.925 19.5938C205.308 19.5938 204.791 19.6119 204.374 19.6482C203.956 19.6663 203.521 19.7389 203.068 19.8659C202.632 19.9747 202.278 20.1289 202.006 20.3285C201.734 20.5281 201.507 20.8184 201.326 21.1993C201.163 21.5622 201.081 22.0067 201.081 22.5328V47.0249H199.122V22.5328C199.122 19.2672 201.39 17.6344 205.925 17.6344C210.46 17.6344 212.728 19.2672 212.728 22.5328ZM216.647 22.5328V47.0249H214.688V22.5328C214.688 20.2287 213.871 18.5143 212.238 17.3894C210.624 16.2465 208.519 15.675 205.925 15.675C203.331 15.675 201.217 16.2465 199.584 17.3894C197.97 18.5143 197.162 20.2287 197.162 22.5328V47.0249H195.203V22.5328C195.203 20.6279 195.693 18.995 196.673 17.6344C197.652 16.2737 198.931 15.285 200.51 14.6681C202.106 14.0331 203.911 13.7156 205.925 13.7156C207.939 13.7156 209.735 14.0331 211.313 14.6681C212.91 15.285 214.198 16.2737 215.178 17.6344C216.157 18.995 216.647 20.6279 216.647 22.5328ZM220.566 22.5328V47.0249H218.607V22.5328C218.607 20.8274 218.271 19.2853 217.599 17.9065C216.946 16.5277 216.039 15.3938 214.878 14.5048C213.717 13.6158 212.375 12.9355 210.851 12.4638C209.327 11.9921 207.685 11.7562 205.925 11.7562C204.165 11.7562 202.523 11.9921 200.999 12.4638C199.475 12.9355 198.133 13.6158 196.971 14.5048C195.811 15.3938 194.895 16.5277 194.223 17.9065C193.57 19.2853 193.243 20.8274 193.243 22.5328V47.0249H191.284V22.5328C191.284 20.5553 191.665 18.7592 192.427 17.1445C193.207 15.5299 194.259 14.1964 195.584 13.1441C196.908 12.0738 198.46 11.2482 200.237 10.6677C202.015 10.0872 203.911 9.7969 205.925 9.7969C207.939 9.7969 209.835 10.0872 211.613 10.6677C213.391 11.2482 214.942 12.0738 216.266 13.1441C217.59 14.1964 218.634 15.5299 219.396 17.1445C220.176 18.7592 220.566 20.5553 220.566 22.5328ZM224.485 47.0249H222.525V22.5328C222.525 20.5553 222.081 18.6594 221.192 16.8452C220.321 15.031 219.142 13.4707 217.654 12.1645C216.167 10.8401 214.397 9.78778 212.347 9.00767C210.297 8.22755 208.157 7.83752 205.925 7.83752C202.859 7.83752 200.074 8.41806 197.57 9.57918C195.085 10.7221 193.089 12.4275 191.584 14.6953C190.078 16.945 189.325 19.5575 189.325 22.5328V47.0249H187.366V22.5328C187.366 20.0292 187.855 17.7251 188.835 15.6206C189.815 13.516 191.139 11.7562 192.808 10.3412C194.495 8.92604 196.464 7.82845 198.713 7.04829C200.981 6.26817 203.385 5.87814 205.925 5.87814C210.424 5.87814 214.325 7.01201 217.627 9.2798C220.929 7.01201 224.83 5.87814 229.329 5.87814C231.869 5.87814 234.263 6.26817 236.513 7.04829C238.781 7.82845 240.749 8.92604 242.419 10.3412C244.106 11.7562 245.439 13.516 246.419 15.6206C247.399 17.7251 247.889 20.0292 247.889 22.5328V47.0249H245.929V22.5328C245.929 19.5756 245.176 16.9722 243.67 14.7225C242.164 12.4547 240.16 10.7403 237.656 9.57918C235.171 8.41806 232.395 7.83752 229.329 7.83752C225.483 7.83752 222.126 8.74461 219.26 10.5589C219.677 10.9217 220.139 11.3934 220.648 11.9739C223.133 10.5225 226.027 9.7969 229.329 9.7969C231.342 9.7969 233.238 10.0872 235.016 10.6677C236.794 11.2482 238.345 12.0738 239.67 13.1441C240.994 14.1964 242.038 15.5299 242.8 17.1445C243.579 18.7592 243.969 20.5553 243.969 22.5328V47.0249H242.01V22.5328C242.01 20.8274 241.675 19.2853 241.003 17.9065C240.35 16.5277 239.443 15.3938 238.282 14.5048C237.121 13.6158 235.778 12.9355 234.254 12.4638C232.731 11.9921 231.088 11.7562 229.329 11.7562C226.444 11.7562 223.949 12.3459 221.845 13.5252C222.172 14.0331 222.498 14.5955 222.825 15.2124C224.603 14.2145 226.771 13.7156 229.329 13.7156C231.342 13.7156 233.138 14.0331 234.717 14.6681C236.314 15.285 237.602 16.2737 238.582 17.6344C239.561 18.995 240.051 20.6279 240.051 22.5328V47.0249H238.092V22.5328C238.092 20.2287 237.275 18.5143 235.642 17.3894C234.028 16.2465 231.923 15.675 229.329 15.675C226.97 15.675 225.056 16.1104 223.587 16.9812C223.822 17.6706 224.004 18.3238 224.131 18.9406C225.274 18.0698 227.006 17.6344 229.329 17.6344C233.864 17.6344 236.132 19.2672 236.132 22.5328V47.0249H234.173V22.5328C234.173 22.0067 234.082 21.5622 233.9 21.1993C233.737 20.8184 233.519 20.5281 233.247 20.3285C232.975 20.1289 232.612 19.9747 232.159 19.8659C231.723 19.7389 231.297 19.6663 230.88 19.6482C230.463 19.6119 229.945 19.5938 229.329 19.5938C228.712 19.5938 228.195 19.6119 227.777 19.6482C227.36 19.6663 226.925 19.7389 226.471 19.8659C226.036 19.9747 225.682 20.1289 225.41 20.3285C225.138 20.5281 224.911 20.8184 224.73 21.1993C224.566 21.5622 224.485 22.0067 224.485 22.5328V47.0249Z" fill="url(#paint0_linear_2_91)"/>
<path d="M36.5267 33.8188L38.4861 30.1177V50.2556H36.5267V33.8188ZM40.4455 26.3077L42.4049 22.6067V50.2556H40.4455V26.3077ZM44.3642 18.9056L46.3236 15.1774V50.2556H44.3642V18.9056ZM31.2201 32.8932L30.1043 30.8523L43.6023 5.19003H45.8066L31.2201 32.8932ZM28.9613 28.621L27.8184 26.5528L39.1392 5.19003H41.3707L28.9613 28.621ZM15.8444 30.3355L17.8038 34.0362V50.2556H15.8444V30.3355ZM11.9256 22.8788L13.885 26.5796V50.2556H11.9256V22.8788ZM8.00688 15.4223L9.96626 19.1506V50.2556H8.00688V15.4223ZM23.8452 38.4994H21.6409L6.04749 8.91828V50.2556H4.0881V5.19003H6.29241L23.8452 38.4994ZM28.281 38.4994H26.0495L8.52393 5.19003H10.7554L28.281 38.4994ZM48.2832 8.91828L32.6896 38.4994H30.4581L12.9598 5.19003H15.1641L31.6011 36.4312L48.0111 5.19003H50.2424V50.2556H48.2832V8.91828ZM90.9811 11.0681H92.9403L80.6126 37.0296V50.2556H78.6533V37.0296L90.9811 11.0681ZM87.0625 11.0681H89.0218L76.694 37.0296V50.2556H74.7348V37.0296L87.0625 11.0681ZM83.1434 11.0681H85.1032L72.7755 37.0296V50.2556H70.8157V37.0296L83.1434 11.0681ZM79.2249 11.0681H81.1841L68.8564 37.0296V50.2556H66.8971V37.0296L53.7531 11.0681H55.7124L67.8497 35.0435L79.2249 11.0681ZM57.6991 11.0681H59.6584L69.3737 29.5461L68.3938 31.6959L57.6991 11.0681ZM61.6176 11.0681H63.6043L71.333 25.2464L70.3262 27.3964L61.6176 11.0681ZM65.5909 11.0681H67.5502L73.2923 20.9738L72.3124 23.1237L65.5909 11.0681ZM132.291 26.7159H134.251V50.2556H132.291V26.7159ZM140.129 26.7159H142.088V50.2556H140.129V26.7159ZM136.21 26.7159H138.17V50.2556H136.21V26.7159ZM130.332 26.7159V50.2556C126.885 51.5618 123.311 52.2149 119.61 52.2149C116.399 52.2149 113.324 51.6251 110.384 50.4461C107.445 49.2671 104.86 47.6341 102.628 45.5477C100.397 43.443 98.61 40.8488 97.2673 37.7648C95.9429 34.6624 95.2806 31.3149 95.2806 27.7226C95.2806 24.4028 95.9251 21.2369 97.2131 18.2253C98.5193 15.1955 100.261 12.5921 102.438 10.415C104.633 8.2198 107.236 6.47813 110.248 5.19003C113.278 3.88379 116.453 3.23065 119.773 3.23065C123.909 3.23065 127.756 4.1922 131.312 6.11531C134.868 8.03836 137.77 10.6509 140.02 13.9528L138.387 15.0141C136.319 11.9843 133.643 9.58957 130.359 7.82971C127.094 6.06991 123.565 5.19003 119.773 5.19003C116.725 5.19003 113.804 5.78871 111.01 6.98611C108.235 8.16538 105.84 9.76188 103.826 11.7757C101.812 13.7895 100.206 16.1934 99.0092 18.9873C97.8297 21.763 97.2404 24.6749 97.2404 27.7226C97.2404 31.0063 97.8479 34.0727 99.0634 36.9212C100.297 39.7691 101.93 42.155 103.962 44.0783C106.012 46.0011 108.389 47.5161 111.092 48.6226C113.795 49.7114 116.607 50.2556 119.528 50.2556C122.594 50.2556 125.542 49.7748 128.373 48.8131V46.9354C125.67 47.8429 122.83 48.2963 119.855 48.2963C117.696 48.2963 115.591 47.9969 113.541 47.398C111.509 46.7814 109.622 45.8831 107.881 44.7041C106.157 43.5068 104.642 42.0917 103.336 40.4587C102.048 38.808 101.032 36.8938 100.288 34.7167C99.5625 32.5213 99.1997 30.1901 99.1997 27.7226C99.1997 24.0036 100.116 20.5657 101.948 17.4089C103.799 14.2521 106.302 11.7575 109.459 9.92518C112.616 8.07463 116.054 7.14941 119.773 7.14941C123.256 7.14941 126.495 7.9658 129.488 9.59863C132.482 11.2133 134.922 13.4085 136.809 16.1843L135.176 17.2456C133.471 14.742 131.257 12.7644 128.536 11.313C125.833 9.84356 122.912 9.10879 119.773 9.10879C117.251 9.10879 114.839 9.59863 112.534 10.5783C110.23 11.558 108.244 12.8824 106.575 14.5514C104.924 16.2024 103.608 18.1799 102.628 20.484C101.649 22.7881 101.159 25.201 101.159 27.7226C101.159 29.9905 101.486 32.1225 102.139 34.1178C102.81 36.0953 103.726 37.8281 104.887 39.3157C106.067 40.7855 107.436 42.0552 108.997 43.1258C110.557 44.1781 112.253 44.9762 114.086 45.5203C115.936 46.065 117.832 46.3371 119.773 46.3371C122.785 46.3371 125.651 45.8289 128.373 44.813V42.8537C125.687 43.8878 122.884 44.4046 119.963 44.4046C117.75 44.4046 115.637 44.0327 113.623 43.2889C111.609 42.5269 109.813 41.4563 108.235 40.0777C106.674 38.6991 105.432 36.9389 104.506 34.7982C103.581 32.6576 103.118 30.299 103.118 27.7226C103.118 24.7112 103.862 21.9263 105.35 19.3683C106.838 16.8102 108.86 14.7873 111.419 13.2996C113.977 11.812 116.761 11.0681 119.773 11.0681C122.585 11.0681 125.198 11.7213 127.611 13.0275C130.042 14.3338 132.019 16.1117 133.543 18.3614L131.91 19.4227C130.568 17.4633 128.826 15.9122 126.685 14.7692C124.562 13.6081 122.259 13.0275 119.773 13.0275C117.106 13.0275 114.648 13.6897 112.398 15.0141C110.149 16.3204 108.362 18.0983 107.037 20.348C105.731 22.5976 105.078 25.0559 105.078 27.7226C105.078 29.5735 105.341 31.2967 105.867 32.8932C106.393 34.4897 107.119 35.8688 108.044 37.0296C108.969 38.1909 110.049 39.1799 111.282 39.9961C112.534 40.8124 113.877 41.4295 115.31 41.8465C116.743 42.2457 118.231 42.4454 119.773 42.4454C122.839 42.4454 125.706 41.8373 128.373 40.6219V38.7442C125.796 39.8872 123.012 40.4587 120.018 40.4587C118.295 40.4587 116.671 40.1958 115.147 39.6693C113.623 39.1434 112.244 38.3723 111.01 37.3564C109.795 36.3405 108.824 35.007 108.098 33.3563C107.391 31.6868 107.037 29.8091 107.037 27.7226C107.037 25.9993 107.373 24.3574 108.044 22.7972C108.715 21.2188 109.622 19.8581 110.765 18.7151C111.908 17.5722 113.26 16.6651 114.82 15.9938C116.399 15.3225 118.05 14.9869 119.773 14.9869C121.932 14.9869 123.937 15.4949 125.787 16.5108C127.638 17.5087 129.144 18.8694 130.305 20.5929L128.699 21.6542C127.72 20.2028 126.44 19.0599 124.862 18.2253C123.302 17.3726 121.606 16.9463 119.773 16.9463C116.798 16.9463 114.258 17.9985 112.153 20.103C110.049 22.2075 108.997 24.7474 108.997 27.7226C108.997 29.5553 109.296 31.1791 109.894 32.5942C110.493 33.9911 111.31 35.1159 112.344 35.9686C113.396 36.8031 114.557 37.438 115.827 37.8737C117.115 38.2907 118.494 38.4994 119.963 38.4994C122.975 38.4994 125.778 37.8737 128.373 36.6217V26.7159H130.332ZM182.473 11.0681H184.433L172.105 37.0296V50.2556H170.145V37.0296L182.473 11.0681ZM178.555 11.0681H180.514L168.186 37.0296V50.2556H166.227V37.0296L178.555 11.0681ZM174.636 11.0681H176.595L164.268 37.0296V50.2556H162.308V37.0296L174.636 11.0681ZM170.717 11.0681H172.676L160.348 37.0296V50.2556H158.389V37.0296L145.245 11.0681H147.204L159.342 35.0435L170.717 11.0681ZM149.191 11.0681H151.15L160.866 29.5461L159.886 31.6959L149.191 11.0681ZM153.11 11.0681H155.096L162.825 25.2464L161.818 27.3964L153.11 11.0681ZM157.083 11.0681H159.042L164.784 20.9738L163.805 23.1237L157.083 11.0681ZM212.816 25.7635V50.2556H210.857V25.7635C210.857 25.2373 210.766 24.7928 210.585 24.43C210.421 24.049 210.204 23.7587 209.932 23.5592C209.66 23.3596 209.297 23.2054 208.843 23.0965C208.408 22.9695 207.981 22.8969 207.564 22.8788C207.147 22.8425 206.63 22.8244 206.013 22.8244C205.396 22.8244 204.879 22.8425 204.462 22.8788C204.044 22.8969 203.609 22.9695 203.156 23.0965C202.72 23.2054 202.366 23.3596 202.094 23.5592C201.822 23.7587 201.595 24.049 201.414 24.43C201.251 24.7928 201.169 25.2373 201.169 25.7635V50.2556H199.21V25.7635C199.21 22.4978 201.477 20.865 206.013 20.865C210.549 20.865 212.816 22.4978 212.816 25.7635ZM216.735 25.7635V50.2556H214.776V25.7635C214.776 23.4594 213.959 21.7449 212.326 20.6201C210.712 19.4771 208.608 18.9056 206.013 18.9056C203.419 18.9056 201.305 19.4771 199.672 20.6201C198.058 21.7449 197.25 23.4594 197.25 25.7635V50.2556H195.291V25.7635C195.291 23.8585 195.781 22.2257 196.761 20.865C197.74 19.5043 199.019 18.5156 200.598 17.8987C202.194 17.2637 203.999 16.9463 206.013 16.9463C208.027 16.9463 209.823 17.2637 211.401 17.8987C212.998 18.5156 214.286 19.5043 215.266 20.865C216.246 22.2257 216.735 23.8585 216.735 25.7635ZM220.654 25.7635V50.2556H218.695V25.7635C218.695 24.0581 218.359 22.516 217.688 21.1371C217.034 19.7583 216.127 18.6244 214.966 17.7354C213.805 16.8465 212.463 16.1661 210.939 15.6944C209.415 15.2227 207.773 14.9869 206.013 14.9869C204.253 14.9869 202.611 15.2227 201.088 15.6944C199.564 16.1661 198.221 16.8465 197.06 17.7354C195.899 18.6244 194.982 19.7583 194.311 21.1371C193.658 22.516 193.331 24.0581 193.331 25.7635V50.2556H191.372V25.7635C191.372 23.7859 191.753 21.9898 192.515 20.3752C193.295 18.7605 194.347 17.427 195.672 16.3748C196.996 15.3044 198.548 14.4789 200.326 13.8984C202.103 13.3178 203.999 13.0275 206.013 13.0275C208.027 13.0275 209.923 13.3178 211.701 13.8984C213.479 14.4789 215.03 15.3044 216.354 16.3748C217.678 17.427 218.722 18.7605 219.484 20.3752C220.264 21.9898 220.654 23.7859 220.654 25.7635ZM224.573 50.2556H222.613V25.7635C222.613 23.7859 222.169 21.8901 221.28 20.0758C220.409 18.2616 219.23 16.7013 217.742 15.3951C216.254 14.0707 214.485 13.0184 212.435 12.2383C210.385 11.4582 208.245 11.0681 206.013 11.0681C202.947 11.0681 200.162 11.6487 197.658 12.8098C195.173 13.9528 193.177 15.6582 191.672 17.9259C190.166 20.1756 189.413 22.7881 189.413 25.7635V50.2556H187.453V25.7635C187.453 23.2598 187.943 20.9557 188.923 18.8512C189.902 16.7467 191.227 14.9869 192.896 13.5718C194.583 12.1567 196.552 11.0591 198.801 10.2789C201.069 9.49882 203.473 9.10879 206.013 9.10879C210.512 9.10879 214.413 10.2427 217.715 12.5104C221.017 10.2427 224.917 9.10879 229.417 9.10879C231.957 9.10879 234.351 9.49882 236.601 10.2789C238.869 11.0591 240.837 12.1567 242.507 13.5718C244.194 14.9869 245.527 16.7467 246.507 18.8512C247.487 20.9557 247.977 23.2598 247.977 25.7635V50.2556H246.017V25.7635C246.017 22.8063 245.264 20.2028 243.758 17.9532C242.252 15.6854 240.248 13.9709 237.744 12.8098C235.259 11.6487 232.483 11.0681 229.417 11.0681C225.571 11.0681 222.214 11.9753 219.348 13.7895C219.765 14.1523 220.227 14.6241 220.736 15.2046C223.221 13.7532 226.115 13.0275 229.417 13.0275C231.43 13.0275 233.326 13.3178 235.104 13.8984C236.882 14.4789 238.434 15.3044 239.758 16.3748C241.082 17.427 242.126 18.7605 242.888 20.3752C243.667 21.9898 244.058 23.7859 244.058 25.7635V50.2556H242.098V25.7635C242.098 24.0581 241.763 22.516 241.092 21.1371C240.438 19.7583 239.531 18.6244 238.37 17.7354C237.209 16.8465 235.866 16.1661 234.342 15.6944C232.819 15.2227 231.177 14.9869 229.417 14.9869C226.532 14.9869 224.038 15.5765 221.933 16.7557C222.26 17.2637 222.586 17.8262 222.913 18.443C224.691 17.4452 226.859 16.9463 229.417 16.9463C231.43 16.9463 233.227 17.2637 234.805 17.8987C236.401 18.5156 237.69 19.5043 238.669 20.865C239.649 22.2257 240.139 23.8585 240.139 25.7635V50.2556H238.18V25.7635C238.18 23.4594 237.363 21.7449 235.73 20.6201C234.116 19.4771 232.011 18.9056 229.417 18.9056C227.058 18.9056 225.144 19.3411 223.675 20.2119C223.91 20.9013 224.092 21.5544 224.219 22.1713C225.362 21.3004 227.094 20.865 229.417 20.865C233.953 20.865 236.22 22.4978 236.22 25.7635V50.2556H234.261V25.7635C234.261 25.2373 234.17 24.7928 233.989 24.43C233.825 24.049 233.608 23.7587 233.335 23.5592C233.063 23.3596 232.701 23.2054 232.247 23.0965C231.811 22.9695 231.385 22.8969 230.968 22.8788C230.551 22.8425 230.033 22.8244 229.417 22.8244C228.8 22.8244 228.283 22.8425 227.865 22.8788C227.448 22.8969 227.013 22.9695 226.559 23.0965C226.124 23.2054 225.77 23.3596 225.498 23.5592C225.226 23.7587 224.999 24.049 224.818 24.43C224.654 24.7928 224.573 25.2373 224.573 25.7635V50.2556Z" fill="white"/>
</g>
<defs>
<filter id="filter0_d_2_91" x="0" y="0" width="255.977" height="66.2149" filterUnits="userSpaceOnUse" color-interpolation-filters="sRGB">
<feFlood flood-opacity="0" result="BackgroundImageFix"/>
<feColorMatrix in="SourceAlpha" type="matrix" values="0 0 0 0 0 0 0 0 0 0 0 0 0 0 0 0 0 0 127 0" result="hardAlpha"/>
<feOffset dx="2" dy="8"/>
<feGaussianBlur stdDeviation="3"/>
<feComposite in2="hardAlpha" operator="out"/>
<feColorMatrix type="matrix" values="0 0 0 0 0 0 0 0 0 0 0 0 0 0 0 0 0 0 0.25 0"/>
<feBlend mode="normal" in2="BackgroundImageFix" result="effect1_dropShadow_2_91"/>
<feBlend mode="normal" in="SourceGraphic" in2="effect1_dropShadow_2_91" result="shape"/>
</filter>
<linearGradient id="paint0_linear_2_91" x1="126.109" y1="-17.3217" x2="126.109" y2="69.3182" gradientUnits="userSpaceOnUse">
<stop offset="0.00523059" stop-color="#C08D41"/>
<stop offset="0.447327" stop-color="#1E5CBA" stop-opacity="0.9"/>
<stop offset="0.546286" stop-color="#0C3F8B" stop-opacity="0.9"/>
<stop offset="1" stop-color="#C08D41"/>
</linearGradient>
</defs>
</svg>
